#!OML:ASF H:\MichaelJackson\Top Level 1\Subject 1\Session 1\male.ASF
:FULLY-SPECIFIED
:DEGREES
1234
root -11.0852 16.5564 27.1421 -176.657 180.576 179.393
lowerback -1.74966 -5.42826 0.837588
upperback -1.36174 -7.26186 -2.38865
thorax -0.837665 -3.65796 -2.96162
lowerneck -6.94619 0.464694 3.57487
upperneck 10.9904 0.0984285 0.862086
head 4.43687 0.238953 -0.312838
rclavicle -7.50412e-014 -1.27222e-014
rhumerus 19.654 -26.1092 5.50358
rradius 26.9017
rwrist -13.2576
rhand -7.42054 -11.7219
rfingers 7.12502
rthumb 18.4663 -1120.87
lclavicle -7.50412e-014 -1.27222e-014
lhumerus -52.7048 -28.8524 113.093
lradius 52.7716
lwrist 24.1699
lhand 27.4743 36.8249
lfingers 7.12502
lthumb 51.4226 57.2674
rfemur -11.2101 -1.61506 3.16371
rtibia 28.0595
rfoot -5.96761 -22.4392
rtoes -31.2858
lfemur -6.58012 0.130943 -1.14905
ltibia 24.475
lfoot -22.9822 -2.10343
ltoes -19.7107
1235
root -11.1155 16.5483 27.1214 -176.655 180.65 179.52
lowerback -1.57211 -5.39941 0.782182
upperback -1.30968 -7.2229 -2.40041
thorax -0.875389 -3.63773 -2.92808
lowerneck -6.96837 0.471629 3.51997
upperneck 10.2303 0.117625 0.915665
head 4.66105 0.241215 -0.31249
rclavicle 4.80313e-014 2.22639e-014
rhumerus 19.4897 -25.8621 5.62524
rradius 26.8468
rwrist -13.017
rhand -7.39075 -11.5088
rfingers 7.12502
rthumb 18.495 -1120.65
lclavicle 4.80313e-014 2.22639e-014
lhumerus -52.4749 -28.7049 113.011
lradius 52.6924
lwrist 24.2692
lhand 27.2738 36.9775
lfingers 7.12502
lthumb 51.2402 57.5239
rfemur -11.4458 -2.10832 3.0978
rtibia 28.3409
rfoot -6.3854 -21.9442
rtoes -31.2011
lfemur -6.40947 -0.895204 -1.43517
ltibia 24.1806
lfoot -22.6082 0.0130942
ltoes -20.8658
1236
root -11.1407 16.5422 27.1007 -176.635 180.733 179.645
lowerback -1.42094 -5.36394 0.7545
upperback -1.25223 -7.17527 -2.40509
thorax -0.894968 -3.6132 -2.90572
lowerneck -6.90443 0.477232 3.5069
upperneck 9.77375 0.141985 0.893082
head 4.48117 0.244597 -0.316516
rclavicle 9.3727e-014 1.43125e-014
rhumerus 19.1576 -25.1955 6.01578
rradius 26.8592
rwrist -12.6428
rhand -7.33039 -11.3037
rfingers 7.12502
rthumb 18.553 -1120.44
lclavicle 9.3727e-014 1.43125e-014
lhumerus -52.2416 -28.5272 112.928
lradius 52.5883
lwrist 24.0732
lhand 27.2252 36.8878
lfingers 7.12502
lthumb 51.1959 57.4592
rfemur -11.7426 -2.58578 3.02573
rtibia 28.6651
rfoot -6.71631 -21.4628
rtoes -31.1319
lfemur -6.28393 -2.05952 -1.74111
ltibia 23.9402
lfoot -22.1241 2.13026
ltoes -21.8248
1237
root -11.1619 16.5378 27.0807 -176.604 180.815 179.756
lowerback -1.29864 -5.32352 0.752558
upperback -1.19304 -7.12101 -2.39623
thorax -0.897764 -3.58535 -2.8869
lowerneck -6.82653 0.479725 3.49753
upperneck 9.33211 0.164885 0.839648
head 4.30537 0.24614 -0.331616
rclavicle -8.77883e-014 -3.97569e-015
rhumerus 18.7642 -24.2965 6.52238
rradius 26.9378
rwrist -12.2983
rhand -7.28297 -11.1313
rfingers 7.12502
rthumb 18.5987 -1120.26
lclavicle -8.77883e-014 -3.97569e-015
lhumerus -52.0221 -28.3473 112.868
lradius 52.4628
lwrist 23.6725
lhand 27.2736 36.5697
lfingers 7.12502
lthumb 51.2399 57.1162
rfemur -12.0782 -3.01855 2.96787
rtibia 29.022
rfoot -6.96804 -21.0306
rtoes -31.061
lfemur -6.19418 -3.27302 -2.01827
ltibia 23.7418
lfoot -21.597 4.04871
ltoes -22.5233
1238
root -11.1802 16.5345 27.0617 -176.564 180.91 179.846
lowerback -1.20884 -5.27613 0.765263
upperback -1.1357 -7.05722 -2.37095
thorax -0.88353 -3.55263 -2.86281
lowerneck -6.74744 0.4835 3.4979
upperneck 8.94461 0.189683 0.75766
head 4.15032 0.248556 -0.357762
rclavicle 3.19174e-014 1.59028e-015
rhumerus 18.447 -23.4975 6.93198
rradius 27.0465
rwrist -11.7452
rhand -7.21536 -10.9588
rfingers 7.12502
rthumb 18.6637 -1120.08
lclavicle 3.19174e-014 1.59028e-015
lhumerus -51.8442 -28.1809 112.839
lradius 52.3455
lwrist 23.1912
lhand 27.335 36.0888
lfingers 7.12502
lthumb 51.2959 56.6036
rfemur -12.4451 -3.37385 2.93694
rtibia 29.4016
rfoot -7.15659 -20.6673
rtoes -30.9409
lfemur -6.13002 -4.40395 -2.23037
ltibia 23.5754
lfoot -21.1063 5.61554
ltoes -22.9414
1239
root -11.1969 16.532 27.0439 -176.513 181.005 179.908
lowerback -1.1525 -5.2262 0.790786
upperback -1.08451 -6.9899 -2.32999
thorax -0.856361 -3.5181 -2.83292
lowerneck -6.66964 0.495875 3.52264
upperneck 8.63837 0.223837 0.648164
head 4.02605 0.256506 -0.396727
rclavicle -5.39452e-014 -3.97569e-015
rhumerus 18.2272 -22.8736 7.19549
rradius 27.1752
rwrist -11.3533
rhand -7.19864 -10.8005
rfingers 7.12502
rthumb 18.6798 -1119.92
lclavicle -5.39452e-014 -3.97569e-015
lhumerus -51.724 -28.0477 112.847
lradius 52.265
lwrist 22.7668
lhand 27.3212 35.5598
lfingers 7.12502
lthumb 51.2833 56.0817
rfemur -12.8283 -3.642 2.94305
rtibia 29.7934
rfoot -7.29611 -20.3872
rtoes -30.7744
lfemur -6.09516 -5.33446 -2.35044
ltibia 23.432
lfoot -20.7231 6.72608
ltoes -23.0911
1240
root -11.2131 16.53 27.0275 -176.45 181.097 179.948
lowerback -1.13447 -5.17698 0.81445
upperback -1.03977 -6.9233 -2.27748
thorax -0.812905 -3.48376 -2.79381
lowerneck -6.62435 0.511718 3.55621
upperneck 8.4381 0.258353 0.533078
head 3.94679 0.266441 -0.439016
rclavicle 2.7635e-014 1.59028e-015
rhumerus 18.1281 -22.5329 7.2633
rradius 27.2758
rwrist -11.133
rhand -7.22894 -10.6255
rfingers 7.12502
rthumb 18.6506 -1119.75
lclavicle 2.7635e-014 1.59028e-015
lhumerus -51.6634 -27.9696 112.888
lradius 52.244
lwrist 22.5057
lhand 27.1837 35.0729
lfingers 7.12502
lthumb 51.1581 55.6656
rfemur -13.2206 -3.82875 2.97934
rtibia 30.1899
rfoot -7.40199 -20.1866
rtoes -30.5633
lfemur -6.0937 -5.98132 -2.3791
ltibia 23.3048
lfoot -20.4701 7.35316
ltoes -23.0157
1241
root -11.2294 16.528 27.0126 -176.384 181.165 179.975
lowerback -1.14118 -5.13636 0.828244
upperback -0.999961 -6.86808 -2.22226
thorax -0.759937 -3.45499 -2.74867
lowerneck -6.61828 0.532908 3.6089
upperneck 8.34797 0.2941 0.418123
head 3.91498 0.279344 -0.484634
rclavicle 1.7639e-014 1.98785e-014
rhumerus 18.1297 -22.4163 7.16322
rradius 27.3592
rwrist -10.9831
rhand -7.28443 -10.4534
rfingers 7.12502
rthumb 18.5973 -1119.58
lclavicle 1.7639e-014 1.98785e-014
lhumerus -51.6614 -27.9572 112.955
lradius 52.2924
lwrist 22.467
lhand 26.9127 34.7091
lfingers 7.12502
lthumb 50.9111 55.44
rfemur -13.5973 -3.95485 3.03303
rtibia 30.5831
rfoot -7.49865 -20.0554
rtoes -30.2925
lfemur -6.12138 -6.32375 -2.33074
ltibia 23.1888
lfoot -20.3369 7.53159
ltoes -22.7847
1242
root -11.2459 16.5258 26.9988 -176.319 181.196 180.001
lowerback -1.16297 -5.10997 0.825145
upperback -0.964995 -6.8318 -2.17185
thorax -0.70328 -3.43563 -2.70027
lowerneck -6.64071 0.559468 3.67417
upperneck 8.34667 0.331224 0.320923
head 3.92059 0.295448 -0.526623
rclavicle -1.41547e-013 -2.94201e-014
rhumerus 18.1778 -22.3887 6.97517
rradius 27.4186
rwrist -10.9288
rhand -7.36111 -10.3132
rfingers 7.12502
rthumb 18.5235 -1119.45
lclavicle -1.41547e-013 -2.94201e-014
lhumerus -51.7025 -28.0088 113.035
lradius 52.3983
lwrist 22.6378
lhand 26.5557 34.5053
lfingers 7.12502
lthumb 50.5855 55.4151
rfemur -13.944 -4.05364 3.08754
rtibia 30.9662
rfoot -7.5943 -19.9711
rtoes -29.9846
lfemur -6.17397 -6.39881 -2.23429
ltibia 23.0792
lfoot -20.2888 7.36768
ltoes -22.5153
